<svg xmlns="http://www.w3.org/2000/svg" xmlns:xlink="http://www.w3.org/1999/xlink" width="167" zoomAndPan="magnify" viewBox="0 0 125.25 125.249998" height="167" preserveAspectRatio="xMidYMid meet" version="1.0"><defs><g/><clipPath id="b57e3c3e43"><path d="M 4.945312 4.945312 L 119.757812 4.945312 L 119.757812 119.757812 L 4.945312 119.757812 Z M 4.945312 4.945312 " clip-rule="nonzero"/></clipPath><clipPath id="e422042c2b"><path d="M 10.632812 56.792969 L 21.816406 56.792969 L 21.816406 67.976562 L 10.632812 67.976562 Z M 10.632812 56.792969 " clip-rule="nonzero"/></clipPath><clipPath id="4775460509"><path d="M 101.398438 56.792969 L 112.582031 56.792969 L 112.582031 67.976562 L 101.398438 67.976562 Z M 101.398438 56.792969 " clip-rule="nonzero"/></clipPath><clipPath id="401de53c6c"><path d="M 35.492188 35.492188 L 89.167969 35.492188 L 89.167969 89.167969 L 35.492188 89.167969 Z M 35.492188 35.492188 " clip-rule="nonzero"/></clipPath></defs><g clip-path="url(#b57e3c3e43)"><path fill="#c31e1e" d="M 119.554688 62.25 C 119.554688 30.601562 93.898438 4.945312 62.25 4.945312 C 30.601562 4.945312 4.945312 30.601562 4.945312 62.25 C 4.945312 93.898438 30.601562 119.554688 62.25 119.554688 C 93.898438 119.554688 119.554688 93.898438 119.554688 62.25 " fill-opacity="1" fill-rule="nonzero"/></g><path fill="#f9931e" d="M 116.4375 62.25 C 116.4375 32.324219 92.175781 8.0625 62.25 8.0625 C 32.324219 8.0625 8.0625 32.324219 8.0625 62.25 C 8.0625 92.175781 32.324219 116.4375 62.25 116.4375 C 92.175781 116.4375 116.4375 92.175781 116.4375 62.25 " fill-opacity="1" fill-rule="nonzero"/><path fill="#c31e1e" d="M 100.191406 62.25 C 100.191406 41.296875 83.203125 24.308594 62.25 24.308594 C 41.296875 24.308594 24.308594 41.296875 24.308594 62.25 C 24.308594 83.203125 41.296875 100.191406 62.25 100.191406 C 83.203125 100.191406 100.191406 83.203125 100.191406 62.25 " fill-opacity="1" fill-rule="nonzero"/><path fill="#c3a61e" d="M 97.726562 62.25 C 97.726562 42.65625 81.84375 26.773438 62.25 26.773438 C 42.660156 26.773438 26.777344 42.65625 26.777344 62.25 C 26.777344 81.839844 42.660156 97.722656 62.25 97.722656 C 81.84375 97.722656 97.726562 81.839844 97.726562 62.25 " fill-opacity="1" fill-rule="nonzero"/><g clip-path="url(#e422042c2b)"><path fill="#a775d2" d="M 16.378906 56.828125 L 18.144531 60.40625 L 22.097656 60.980469 L 19.238281 63.769531 L 19.914062 67.707031 L 16.378906 65.847656 L 12.84375 67.707031 L 13.519531 63.769531 L 10.660156 60.980469 L 14.609375 60.40625 Z M 16.378906 56.828125 " fill-opacity="1" fill-rule="nonzero"/><path fill="#a775d2" d="M 16.351562 56.792969 L 18.121094 60.375 L 22.070312 60.949219 L 19.210938 63.734375 L 19.886719 67.671875 L 16.351562 65.8125 L 12.816406 67.671875 L 13.492188 63.734375 L 10.632812 60.949219 L 14.582031 60.375 Z M 16.351562 56.792969 " fill-opacity="1" fill-rule="nonzero"/><path fill="#a775d2" d="M 16.351562 56.792969 L 18.121094 60.375 L 22.070312 60.949219 L 19.210938 63.734375 L 19.886719 67.671875 L 16.351562 65.8125 L 12.816406 67.671875 L 13.492188 63.734375 L 10.632812 60.949219 L 14.582031 60.375 Z M 16.351562 56.792969 " fill-opacity="1" fill-rule="nonzero"/><path fill="#a775d2" d="M 16.351562 56.792969 L 18.121094 60.375 L 22.070312 60.949219 L 19.210938 63.734375 L 19.886719 67.671875 L 16.351562 65.8125 L 12.816406 67.671875 L 13.492188 63.734375 L 10.632812 60.949219 L 14.582031 60.375 Z M 16.351562 56.792969 " fill-opacity="1" fill-rule="nonzero"/></g><g clip-path="url(#4775460509)"><path fill="#a775d2" d="M 107.144531 56.828125 L 108.910156 60.40625 L 112.863281 60.980469 L 110.003906 63.769531 L 110.679688 67.707031 L 107.144531 65.847656 L 103.609375 67.707031 L 104.285156 63.769531 L 101.425781 60.980469 L 105.378906 60.40625 Z M 107.144531 56.828125 " fill-opacity="1" fill-rule="nonzero"/><path fill="#a775d2" d="M 107.117188 56.792969 L 108.886719 60.375 L 112.835938 60.949219 L 109.976562 63.734375 L 110.652344 67.671875 L 107.117188 65.8125 L 103.585938 67.671875 L 104.257812 63.734375 L 101.398438 60.949219 L 105.351562 60.375 Z M 107.117188 56.792969 " fill-opacity="1" fill-rule="nonzero"/><path fill="#a775d2" d="M 107.117188 56.792969 L 108.886719 60.375 L 112.835938 60.949219 L 109.976562 63.734375 L 110.652344 67.671875 L 107.117188 65.8125 L 103.585938 67.671875 L 104.257812 63.734375 L 101.398438 60.949219 L 105.351562 60.375 Z M 107.117188 56.792969 " fill-opacity="1" fill-rule="nonzero"/><path fill="#a775d2" d="M 107.117188 56.792969 L 108.886719 60.375 L 112.835938 60.949219 L 109.976562 63.734375 L 110.652344 67.671875 L 107.117188 65.8125 L 103.585938 67.671875 L 104.257812 63.734375 L 101.398438 60.949219 L 105.351562 60.375 Z M 107.117188 56.792969 " fill-opacity="1" fill-rule="nonzero"/></g><g clip-path="url(#401de53c6c)"><path fill="#a775d2" d="M 68.46875 59.699219 C 68.460938 59.3125 68.421875 58.929688 68.34375 58.550781 C 68.265625 58.171875 68.15625 57.804688 68.007812 57.445312 C 67.863281 57.085938 67.683594 56.746094 67.476562 56.421875 C 67.265625 56.09375 67.027344 55.792969 66.761719 55.511719 C 66.496094 55.230469 66.207031 54.976562 65.890625 54.75 C 65.578125 54.523438 65.246094 54.328125 64.898438 54.164062 C 64.546875 54 64.183594 53.867188 63.808594 53.769531 C 63.4375 53.675781 63.054688 53.613281 62.667969 53.585938 C 62.285156 53.558594 61.898438 53.570312 61.515625 53.617188 C 61.128906 53.660156 60.753906 53.742188 60.386719 53.859375 C 60.015625 53.972656 59.660156 54.125 59.320312 54.304688 C 58.976562 54.488281 58.65625 54.699219 58.355469 54.941406 C 58.054688 55.183594 57.777344 55.453125 57.527344 55.746094 C 57.273438 56.039062 57.050781 56.355469 56.859375 56.691406 C 56.667969 57.027344 56.507812 57.375 56.378906 57.742188 C 56.25 58.105469 56.160156 58.480469 56.101562 58.863281 C 56.042969 59.246094 56.023438 59.628906 56.035156 60.015625 C 56.050781 60.402344 56.101562 60.785156 56.183594 61.164062 C 56.269531 61.539062 56.390625 61.90625 56.542969 62.261719 C 56.699219 62.617188 56.882812 62.953125 57.097656 63.273438 C 57.316406 63.59375 57.5625 63.890625 57.832031 64.167969 C 58.105469 64.441406 58.402344 64.6875 58.71875 64.910156 C 59.039062 65.128906 59.375 65.316406 59.726562 65.472656 C 60.082031 65.628906 60.445312 65.753906 60.820312 65.84375 L 55.878906 87.453125 C 55.804688 87.847656 55.890625 88.203125 56.132812 88.523438 C 56.386719 88.839844 56.71875 89 57.125 89.007812 L 67.320312 89.007812 C 67.726562 89 68.058594 88.839844 68.3125 88.523438 C 68.574219 88.207031 68.660156 87.851562 68.570312 87.453125 L 63.777344 65.84375 C 64.453125 65.660156 65.078125 65.375 65.660156 64.984375 C 66.238281 64.59375 66.742188 64.121094 67.164062 63.566406 C 67.589844 63.011719 67.914062 62.402344 68.136719 61.742188 C 68.359375 61.078125 68.46875 60.398438 68.46875 59.699219 Z M 58.578125 59.699219 C 58.597656 59.21875 58.710938 58.757812 58.910156 58.320312 C 59.113281 57.882812 59.390625 57.5 59.742188 57.171875 C 60.09375 56.839844 60.496094 56.59375 60.949219 56.421875 C 61.398438 56.25 61.863281 56.171875 62.347656 56.183594 C 62.828125 56.199219 63.289062 56.304688 63.730469 56.496094 C 64.171875 56.691406 64.558594 56.964844 64.894531 57.3125 C 65.226562 57.660156 65.480469 58.058594 65.660156 58.507812 C 65.835938 58.957031 65.921875 59.421875 65.914062 59.902344 C 65.910156 60.382812 65.8125 60.847656 65.621094 61.289062 C 65.433594 61.734375 65.167969 62.125 64.824219 62.464844 C 64.480469 62.804688 64.085938 63.0625 63.640625 63.246094 C 63.195312 63.429688 62.730469 63.523438 62.25 63.523438 C 61.753906 63.511719 61.277344 63.410156 60.820312 63.210938 C 60.367188 63.007812 59.964844 62.730469 59.621094 62.371094 C 59.277344 62.015625 59.015625 61.601562 58.835938 61.140625 C 58.65625 60.675781 58.570312 60.199219 58.578125 59.699219 Z M 58.730469 86.457031 L 62.25 70.660156 L 65.765625 86.457031 Z M 55.242188 75.320312 C 55.0625 75.359375 54.882812 75.359375 54.707031 75.320312 C 53.257812 74.609375 51.933594 73.707031 50.738281 72.625 C 49.542969 71.539062 48.515625 70.3125 47.664062 68.941406 C 46.8125 67.570312 46.164062 66.105469 45.71875 64.554688 C 45.277344 63 45.054688 61.417969 45.054688 59.800781 C 45.054688 58.1875 45.277344 56.605469 45.71875 55.050781 C 46.164062 53.5 46.8125 52.035156 47.664062 50.664062 C 48.515625 49.292969 49.542969 48.066406 50.738281 46.980469 C 51.933594 45.898438 53.257812 44.996094 54.707031 44.28125 C 54.859375 44.210938 55.019531 44.171875 55.191406 44.167969 C 55.359375 44.160156 55.523438 44.1875 55.683594 44.246094 C 55.839844 44.304688 55.984375 44.390625 56.105469 44.503906 C 56.230469 44.621094 56.328125 44.753906 56.398438 44.90625 C 56.472656 45.0625 56.511719 45.222656 56.515625 45.390625 C 56.523438 45.5625 56.496094 45.726562 56.4375 45.882812 C 56.378906 46.042969 56.292969 46.183594 56.179688 46.308594 C 56.0625 46.433594 55.929688 46.53125 55.777344 46.601562 C 54.546875 47.210938 53.421875 47.976562 52.40625 48.898438 C 51.390625 49.824219 50.519531 50.867188 49.796875 52.035156 C 49.074219 53.199219 48.523438 54.445312 48.144531 55.761719 C 47.769531 57.082031 47.582031 58.429688 47.582031 59.800781 C 47.582031 61.175781 47.769531 62.523438 48.144531 63.839844 C 48.523438 65.160156 49.074219 66.40625 49.796875 67.570312 C 50.519531 68.738281 51.390625 69.78125 52.40625 70.703125 C 53.421875 71.628906 54.546875 72.394531 55.777344 73.003906 C 55.929688 73.074219 56.066406 73.171875 56.179688 73.300781 C 56.296875 73.425781 56.382812 73.570312 56.4375 73.730469 C 56.496094 73.890625 56.519531 74.054688 56.511719 74.226562 C 56.503906 74.394531 56.460938 74.558594 56.386719 74.710938 C 56.269531 74.914062 56.109375 75.070312 55.902344 75.179688 C 55.695312 75.292969 55.476562 75.339844 55.242188 75.320312 Z M 69.792969 75.320312 C 69.613281 75.359375 69.433594 75.359375 69.257812 75.320312 C 69.011719 75.328125 68.785156 75.269531 68.578125 75.136719 C 68.367188 75.007812 68.210938 74.832031 68.109375 74.609375 C 68.035156 74.453125 67.996094 74.292969 67.984375 74.121094 C 67.976562 73.953125 68 73.789062 68.058594 73.628906 C 68.117188 73.464844 68.203125 73.324219 68.316406 73.199219 C 68.433594 73.070312 68.566406 72.972656 68.722656 72.902344 C 69.949219 72.289062 71.070312 71.515625 72.082031 70.589844 C 73.09375 69.664062 73.960938 68.617188 74.679688 67.445312 C 75.398438 66.277344 75.945312 65.03125 76.316406 63.710938 C 76.6875 62.390625 76.871094 61.042969 76.867188 59.667969 C 76.859375 58.296875 76.667969 56.949219 76.285156 55.632812 C 75.902344 54.3125 75.347656 53.074219 74.621094 51.910156 C 73.890625 50.746094 73.019531 49.703125 72 48.785156 C 70.980469 47.867188 69.851562 47.105469 68.621094 46.5 C 68.464844 46.429688 68.332031 46.332031 68.21875 46.207031 C 68.101562 46.082031 68.015625 45.941406 67.957031 45.78125 C 67.898438 45.625 67.871094 45.460938 67.878906 45.289062 C 67.886719 45.121094 67.925781 44.960938 67.996094 44.804688 C 68.066406 44.652344 68.164062 44.515625 68.289062 44.402344 C 68.414062 44.289062 68.554688 44.199219 68.714844 44.140625 C 68.871094 44.082031 69.035156 44.058594 69.207031 44.066406 C 69.375 44.070312 69.535156 44.109375 69.691406 44.179688 C 71.136719 44.894531 72.460938 45.792969 73.65625 46.878906 C 74.855469 47.964844 75.878906 49.191406 76.730469 50.5625 C 77.585938 51.933594 78.234375 53.394531 78.675781 54.949219 C 79.121094 56.5 79.339844 58.085938 79.339844 59.699219 C 79.339844 61.316406 79.121094 62.898438 78.675781 64.453125 C 78.234375 66.003906 77.585938 67.46875 76.730469 68.839844 C 75.878906 70.210938 74.855469 71.4375 73.65625 72.523438 C 72.460938 73.605469 71.136719 74.507812 69.691406 75.21875 Z M 52.207031 83.144531 C 52.109375 83.371094 51.953125 83.550781 51.746094 83.683594 C 51.535156 83.820312 51.308594 83.886719 51.0625 83.882812 C 50.882812 83.921875 50.703125 83.921875 50.527344 83.882812 C 49.410156 83.332031 48.335938 82.707031 47.308594 82.003906 C 46.28125 81.304688 45.304688 80.535156 44.382812 79.699219 C 43.460938 78.863281 42.601562 77.964844 41.804688 77.007812 C 41.007812 76.054688 40.277344 75.046875 39.621094 73.988281 C 38.964844 72.929688 38.382812 71.832031 37.878906 70.695312 C 37.375 69.554688 36.953125 68.386719 36.613281 67.191406 C 36.269531 65.992188 36.011719 64.777344 35.839844 63.546875 C 35.667969 62.3125 35.582031 61.074219 35.582031 59.828125 C 35.582031 58.582031 35.667969 57.34375 35.839844 56.109375 C 36.011719 54.878906 36.269531 53.664062 36.613281 52.464844 C 36.953125 51.269531 37.375 50.101562 37.878906 48.960938 C 38.382812 47.824219 38.964844 46.726562 39.621094 45.667969 C 40.277344 44.609375 41.007812 43.601562 41.804688 42.648438 C 42.601562 41.691406 43.460938 40.792969 44.382812 39.957031 C 45.304688 39.121094 46.28125 38.351562 47.308594 37.652344 C 48.335938 36.949219 49.410156 36.324219 50.527344 35.773438 C 50.675781 35.710938 50.832031 35.683594 50.992188 35.683594 C 51.152344 35.683594 51.308594 35.714844 51.460938 35.773438 C 51.609375 35.832031 51.742188 35.914062 51.859375 36.027344 C 51.980469 36.136719 52.074219 36.261719 52.140625 36.410156 C 52.210938 36.554688 52.253906 36.707031 52.261719 36.867188 C 52.273438 37.027344 52.257812 37.183594 52.207031 37.339844 C 52.160156 37.492188 52.085938 37.632812 51.984375 37.757812 C 51.882812 37.882812 51.761719 37.984375 51.621094 38.066406 C 50.628906 38.570312 49.671875 39.140625 48.757812 39.777344 C 47.84375 40.414062 46.976562 41.113281 46.15625 41.871094 C 45.335938 42.625 44.574219 43.433594 43.863281 44.296875 C 43.15625 45.160156 42.511719 46.066406 41.925781 47.015625 C 41.34375 47.964844 40.828125 48.953125 40.382812 49.972656 C 39.933594 50.996094 39.558594 52.042969 39.257812 53.117188 C 38.953125 54.191406 38.726562 55.277344 38.574219 56.382812 C 38.421875 57.488281 38.34375 58.597656 38.34375 59.714844 C 38.34375 60.828125 38.421875 61.9375 38.574219 63.042969 C 38.726562 64.148438 38.953125 65.238281 39.257812 66.3125 C 39.558594 67.382812 39.933594 68.429688 40.382812 69.453125 C 40.828125 70.476562 41.34375 71.460938 41.925781 72.410156 C 42.511719 73.363281 43.15625 74.269531 43.863281 75.128906 C 44.574219 75.992188 45.335938 76.800781 46.15625 77.558594 C 46.976562 78.3125 47.84375 79.011719 48.757812 79.648438 C 49.671875 80.285156 50.628906 80.855469 51.621094 81.363281 C 51.789062 81.433594 51.929688 81.535156 52.054688 81.664062 C 52.175781 81.796875 52.261719 81.949219 52.320312 82.121094 C 52.375 82.292969 52.394531 82.464844 52.375 82.644531 C 52.355469 82.824219 52.300781 82.992188 52.207031 83.144531 Z M 89.007812 59.699219 C 89.011719 60.949219 88.933594 62.1875 88.765625 63.421875 C 88.597656 64.660156 88.34375 65.875 88.003906 67.078125 C 87.664062 68.277344 87.242188 69.445312 86.738281 70.585938 C 86.234375 71.726562 85.652344 72.828125 84.996094 73.886719 C 84.335938 74.945312 83.609375 75.953125 82.808594 76.90625 C 82.007812 77.863281 81.144531 78.757812 80.21875 79.59375 C 79.292969 80.429688 78.3125 81.195312 77.28125 81.894531 C 76.246094 82.589844 75.167969 83.210938 74.046875 83.757812 C 73.871094 83.792969 73.691406 83.792969 73.511719 83.757812 C 73.261719 83.753906 73.035156 83.6875 72.824219 83.554688 C 72.613281 83.421875 72.449219 83.242188 72.339844 83.019531 C 72.269531 82.867188 72.234375 82.707031 72.226562 82.539062 C 72.21875 82.371094 72.242188 82.210938 72.300781 82.050781 C 72.359375 81.894531 72.445312 81.753906 72.554688 81.628906 C 72.667969 81.507812 72.800781 81.40625 72.953125 81.335938 C 73.945312 80.828125 74.898438 80.257812 75.8125 79.617188 C 76.726562 78.980469 77.59375 78.28125 78.414062 77.523438 C 79.230469 76.765625 79.992188 75.953125 80.699219 75.089844 C 81.40625 74.226562 82.050781 73.320312 82.632812 72.367188 C 83.210938 71.417969 83.726562 70.429688 84.171875 69.40625 C 84.617188 68.386719 84.988281 67.335938 85.292969 66.261719 C 85.59375 65.1875 85.816406 64.101562 85.96875 62.996094 C 86.121094 61.890625 86.195312 60.78125 86.191406 59.664062 C 86.191406 58.550781 86.113281 57.4375 85.957031 56.335938 C 85.800781 55.230469 85.574219 54.140625 85.269531 53.070312 C 84.964844 51.996094 84.585938 50.949219 84.136719 49.929688 C 83.6875 48.90625 83.171875 47.921875 82.585938 46.972656 C 82 46.023438 81.355469 45.117188 80.644531 44.257812 C 79.933594 43.398438 79.171875 42.589844 78.347656 41.835938 C 77.527344 41.078125 76.660156 40.382812 75.742188 39.75 C 74.828125 39.113281 73.871094 38.542969 72.875 38.039062 C 72.722656 37.96875 72.59375 37.871094 72.480469 37.746094 C 72.367188 37.621094 72.28125 37.480469 72.226562 37.324219 C 72.167969 37.167969 72.140625 37.003906 72.148438 36.835938 C 72.15625 36.667969 72.195312 36.511719 72.265625 36.359375 C 72.339844 36.207031 72.4375 36.074219 72.566406 35.960938 C 72.691406 35.847656 72.835938 35.761719 72.992188 35.703125 C 73.152344 35.648438 73.316406 35.621094 73.488281 35.628906 C 73.65625 35.636719 73.816406 35.675781 73.972656 35.746094 C 75.09375 36.289062 76.167969 36.902344 77.203125 37.597656 C 78.238281 38.289062 79.21875 39.050781 80.144531 39.878906 C 81.074219 40.710938 81.9375 41.601562 82.738281 42.550781 C 83.542969 43.503906 84.273438 44.507812 84.9375 45.558594 C 85.597656 46.613281 86.183594 47.710938 86.691406 48.84375 C 87.199219 49.980469 87.625 51.148438 87.96875 52.34375 C 88.3125 53.539062 88.570312 54.753906 88.746094 55.984375 C 88.917969 57.21875 89.007812 58.457031 89.007812 59.699219 Z M 89.007812 59.699219 " fill-opacity="1" fill-rule="nonzero"/></g><g fill="#a775d2" fill-opacity="1"><g transform="translate(32.574838, 33.658995)"><g><path d="M -0.46875 -7.671875 C 0.507812 -8.515625 1.445312 -8.414062 2.34375 -7.375 L 3.75 -5.734375 C 4.65625 -4.691406 4.617188 -3.75 3.640625 -2.90625 L 2.234375 -1.703125 C 1.253906 -0.867188 0.3125 -0.972656 -0.59375 -2.015625 L -4.6875 -6.78125 C -5.582031 -7.820312 -5.539062 -8.757812 -4.5625 -9.59375 L -3.28125 -10.703125 C -2.300781 -11.546875 -1.363281 -11.445312 -0.46875 -10.40625 L 0.015625 -9.859375 L -1.5 -8.546875 L -2.015625 -9.140625 C -2.066406 -9.203125 -2.132812 -9.238281 -2.21875 -9.25 C -2.300781 -9.257812 -2.375 -9.238281 -2.4375 -9.1875 L -3.203125 -8.515625 C -3.265625 -8.460938 -3.296875 -8.394531 -3.296875 -8.3125 C -3.304688 -8.226562 -3.285156 -8.15625 -3.234375 -8.09375 L -1.71875 -6.328125 C -1.59375 -6.617188 -1.375 -6.898438 -1.0625 -7.171875 Z M 2.171875 -4.609375 L 1 -5.984375 C 0.9375 -6.046875 0.863281 -6.082031 0.78125 -6.09375 C 0.707031 -6.101562 0.640625 -6.082031 0.578125 -6.03125 L -0.359375 -5.21875 C -0.421875 -5.164062 -0.457031 -5.097656 -0.46875 -5.015625 C -0.476562 -4.929688 -0.453125 -4.859375 -0.390625 -4.796875 L 0.78125 -3.421875 C 0.832031 -3.359375 0.898438 -3.320312 0.984375 -3.3125 C 1.078125 -3.300781 1.15625 -3.320312 1.21875 -3.375 L 2.15625 -4.1875 C 2.21875 -4.238281 2.25 -4.304688 2.25 -4.390625 C 2.25 -4.472656 2.222656 -4.546875 2.171875 -4.609375 Z M 2.171875 -4.609375 "/></g></g></g><g fill="#a775d2" fill-opacity="1"><g transform="translate(38.374433, 28.724473)"><g><path d="M 1.5 -10.359375 L 4.671875 -4.921875 C 5.359375 -3.734375 5.144531 -2.816406 4.03125 -2.171875 L 2.421875 -1.234375 C 1.304688 -0.578125 0.40625 -0.84375 -0.28125 -2.03125 L -3.453125 -7.46875 C -4.148438 -8.65625 -3.941406 -9.578125 -2.828125 -10.234375 L -1.21875 -11.171875 C -0.101562 -11.816406 0.800781 -11.546875 1.5 -10.359375 Z M 2.96875 -3.65625 L -0.46875 -9.515625 C -0.507812 -9.585938 -0.570312 -9.632812 -0.65625 -9.65625 C -0.738281 -9.6875 -0.816406 -9.679688 -0.890625 -9.640625 L -1.65625 -9.1875 C -1.726562 -9.144531 -1.769531 -9.082031 -1.78125 -9 C -1.800781 -8.914062 -1.789062 -8.835938 -1.75 -8.765625 L 1.6875 -2.90625 C 1.726562 -2.832031 1.785156 -2.78125 1.859375 -2.75 C 1.941406 -2.71875 2.019531 -2.722656 2.09375 -2.765625 L 2.859375 -3.21875 C 2.929688 -3.257812 2.976562 -3.320312 3 -3.40625 C 3.019531 -3.5 3.007812 -3.582031 2.96875 -3.65625 Z M 2.96875 -3.65625 "/></g></g></g><g fill="#a775d2" fill-opacity="1"><g transform="translate(45.009185, 25.041685)"><g><path d="M -1.390625 -10.328125 L -0.359375 -7.265625 L -1.671875 -6.734375 L -3.0625 -9.65625 Z M -1.390625 -10.328125 "/></g></g></g><g fill="#a775d2" fill-opacity="1"><g transform="translate(48.658784, 23.449076)"><g><path d="M 4.390625 -8.796875 L 2.375 -8.28125 L 2.171875 -9.03125 C 2.148438 -9.113281 2.101562 -9.175781 2.03125 -9.21875 C 1.957031 -9.269531 1.878906 -9.285156 1.796875 -9.265625 L 0.96875 -9.046875 C 0.882812 -9.023438 0.820312 -8.976562 0.78125 -8.90625 C 0.738281 -8.84375 0.726562 -8.769531 0.75 -8.6875 L 1.1875 -6.953125 C 1.207031 -6.878906 1.253906 -6.816406 1.328125 -6.765625 C 1.398438 -6.710938 1.476562 -6.695312 1.5625 -6.71875 L 2.921875 -7.0625 C 4.179688 -7.363281 4.972656 -6.859375 5.296875 -5.546875 L 5.828125 -3.4375 C 6.160156 -2.101562 5.703125 -1.273438 4.453125 -0.953125 L 2.671875 -0.5 C 1.410156 -0.1875 0.613281 -0.695312 0.28125 -2.03125 L 0.03125 -3.046875 L 2.046875 -3.5625 L 2.3125 -2.46875 C 2.332031 -2.394531 2.378906 -2.332031 2.453125 -2.28125 C 2.523438 -2.226562 2.601562 -2.210938 2.6875 -2.234375 L 3.625 -2.46875 C 3.707031 -2.488281 3.765625 -2.535156 3.796875 -2.609375 C 3.835938 -2.691406 3.847656 -2.769531 3.828125 -2.84375 L 3.34375 -4.78125 C 3.320312 -4.851562 3.28125 -4.910156 3.21875 -4.953125 C 3.15625 -5.003906 3.082031 -5.019531 3 -5 L 1.640625 -4.65625 C 0.378906 -4.34375 -0.421875 -4.851562 -0.765625 -6.1875 L -1.25 -8.125 C -1.582031 -9.457031 -1.117188 -10.28125 0.140625 -10.59375 L 1.8125 -11.03125 C 3.070312 -11.34375 3.867188 -10.832031 4.203125 -9.5 Z M 4.390625 -8.796875 "/></g></g></g><g fill="#a775d2" fill-opacity="1"><g transform="translate(56.14371, 21.744126)"><g/></g></g><g fill="#a775d2" fill-opacity="1"><g transform="translate(59.806105, 21.239938)"><g><path d="M 3.09375 -4.046875 L 2.96875 0.09375 L 0.78125 0.03125 L 1.078125 -10.0625 L 4.96875 -9.953125 C 6.257812 -9.910156 6.882812 -9.203125 6.84375 -7.828125 L 6.8125 -6.671875 C 6.789062 -5.835938 6.476562 -5.316406 5.875 -5.109375 C 6.394531 -4.898438 6.644531 -4.460938 6.625 -3.796875 L 6.5 0.203125 L 4.3125 0.125 L 4.421875 -3.703125 C 4.429688 -3.910156 4.335938 -4.015625 4.140625 -4.015625 Z M 3.234375 -8.515625 L 3.140625 -5.578125 L 4.296875 -5.546875 C 4.378906 -5.546875 4.445312 -5.570312 4.5 -5.625 C 4.5625 -5.6875 4.597656 -5.757812 4.609375 -5.84375 L 4.671875 -8.15625 C 4.671875 -8.238281 4.644531 -8.3125 4.59375 -8.375 C 4.539062 -8.445312 4.472656 -8.484375 4.390625 -8.484375 Z M 3.234375 -8.515625 "/></g></g></g><g fill="#a775d2" fill-opacity="1"><g transform="translate(67.351677, 21.481614)"><g><path d="M 6.890625 -8.984375 C 8.148438 -8.703125 8.632812 -7.890625 8.34375 -6.546875 L 6.578125 1.453125 L 4.4375 0.984375 L 5.171875 -2.328125 L 3.640625 -2.671875 L 2.90625 0.640625 L 0.765625 0.171875 L 2.53125 -7.828125 C 2.820312 -9.171875 3.597656 -9.707031 4.859375 -9.4375 Z M 4 -4.3125 L 5.53125 -3.96875 L 6.265625 -7.265625 C 6.273438 -7.347656 6.257812 -7.425781 6.21875 -7.5 C 6.175781 -7.582031 6.117188 -7.628906 6.046875 -7.640625 L 5.078125 -7.859375 C 4.992188 -7.878906 4.914062 -7.863281 4.84375 -7.8125 C 4.78125 -7.757812 4.742188 -7.691406 4.734375 -7.609375 Z M 4 -4.3125 "/></g></g></g><g fill="#a775d2" fill-opacity="1"><g transform="translate(75.035619, 23.207189)"><g><path d="M 8.40625 -7.359375 C 9.59375 -6.847656 9.914062 -5.960938 9.375 -4.703125 L 7 0.78125 C 6.457031 2.039062 5.59375 2.414062 4.40625 1.90625 L 0.71875 0.3125 L 4.71875 -8.953125 Z M 4.890625 0.140625 L 7.46875 -5.8125 C 7.5 -5.894531 7.5 -5.972656 7.46875 -6.046875 C 7.445312 -6.128906 7.398438 -6.1875 7.328125 -6.21875 L 6.140625 -6.734375 L 3.3125 -0.203125 L 4.5 0.3125 C 4.570312 0.34375 4.644531 0.335938 4.71875 0.296875 C 4.800781 0.265625 4.859375 0.210938 4.890625 0.140625 Z M 4.890625 0.140625 "/></g></g></g><g fill="#a775d2" fill-opacity="1"><g transform="translate(82.348102, 26.560759)"><g><path d="M 7.859375 -6.984375 L 2.515625 1.578125 L 0.65625 0.40625 L 6 -8.15625 Z M 7.859375 -6.984375 "/></g></g></g><g fill="#a775d2" fill-opacity="1"><g transform="translate(86.054684, 28.750297)"><g><path d="M 10.453125 -1.84375 L 6.359375 2.921875 C 5.472656 3.972656 4.535156 4.078125 3.546875 3.234375 L 1.96875 1.890625 C 0.988281 1.046875 0.941406 0.0976562 1.828125 -0.953125 L 5.921875 -5.71875 C 6.804688 -6.769531 7.738281 -6.875 8.71875 -6.03125 L 10.296875 -4.6875 C 11.285156 -3.84375 11.335938 -2.894531 10.453125 -1.84375 Z M 4.53125 1.6875 L 8.953125 -3.46875 C 9.003906 -3.53125 9.03125 -3.601562 9.03125 -3.6875 C 9.03125 -3.769531 9 -3.835938 8.9375 -3.890625 L 8.1875 -4.53125 C 8.125 -4.582031 8.046875 -4.601562 7.953125 -4.59375 C 7.867188 -4.59375 7.800781 -4.5625 7.75 -4.5 L 3.328125 0.65625 C 3.273438 0.726562 3.25 0.804688 3.25 0.890625 C 3.257812 0.984375 3.296875 1.054688 3.359375 1.109375 L 4.109375 1.75 C 4.171875 1.800781 4.242188 1.820312 4.328125 1.8125 C 4.410156 1.800781 4.476562 1.757812 4.53125 1.6875 Z M 4.53125 1.6875 "/></g></g></g><g fill="#a775d2" fill-opacity="1"><g transform="translate(15.107189, 76.566679)"><g><path d="M 6.53125 -2.015625 L 8 -2.515625 L 9.4375 1.78125 L 7.96875 2.28125 L 7.53125 1 L 1.0625 3.171875 L 0.484375 1.453125 L 6.953125 -0.71875 Z M 6.53125 -2.015625 "/></g></g></g><g fill="#a775d2" fill-opacity="1"><g transform="translate(17.168984, 82.546279)"><g><path d="M 4.03125 0.703125 L 1.109375 2.1875 L 0.296875 0.578125 L 7.765625 -3.203125 L 8.578125 -1.59375 L 5.453125 0 L 6.09375 1.28125 L 9.21875 -0.3125 L 10.046875 1.3125 L 2.578125 5.09375 L 1.75 3.46875 L 4.671875 1.984375 Z M 4.03125 0.703125 "/></g></g></g><g fill="#a775d2" fill-opacity="1"><g transform="translate(20.823072, 89.478505)"><g><path d="M 4.21875 -0.015625 L 1.4375 1.984375 L 0.375 0.515625 L 7.171875 -4.390625 L 9.0625 -1.765625 C 9.6875 -0.898438 9.53125 -0.128906 8.59375 0.546875 L 7.8125 1.109375 C 7.257812 1.515625 6.757812 1.570312 6.3125 1.28125 C 6.4375 1.71875 6.273438 2.097656 5.828125 2.421875 L 3.140625 4.359375 L 2.09375 2.90625 L 4.671875 1.046875 C 4.804688 0.953125 4.828125 0.835938 4.734375 0.703125 Z M 7.234375 -2.1875 L 5.25 -0.765625 L 5.8125 0.03125 C 5.851562 0.0703125 5.90625 0.0976562 5.96875 0.109375 C 6.039062 0.117188 6.101562 0.101562 6.15625 0.0625 L 7.71875 -1.046875 C 7.769531 -1.097656 7.804688 -1.15625 7.828125 -1.21875 C 7.847656 -1.289062 7.835938 -1.347656 7.796875 -1.390625 Z M 7.234375 -2.1875 "/></g></g></g><g fill="#a775d2" fill-opacity="1"><g transform="translate(25.280074, 95.477941)"><g><path d="M 8.75 -0.8125 L 5.046875 2.859375 C 4.234375 3.660156 3.453125 3.675781 2.703125 2.90625 L 1.484375 1.6875 C 0.734375 0.925781 0.765625 0.144531 1.578125 -0.65625 L 5.28125 -4.328125 C 6.082031 -5.128906 6.859375 -5.148438 7.609375 -4.390625 L 8.828125 -3.171875 C 9.578125 -2.398438 9.550781 -1.613281 8.75 -0.8125 Z M 3.640625 1.703125 L 7.640625 -2.265625 C 7.679688 -2.304688 7.703125 -2.359375 7.703125 -2.421875 C 7.703125 -2.492188 7.675781 -2.554688 7.625 -2.609375 L 7.0625 -3.1875 C 7.007812 -3.238281 6.945312 -3.257812 6.875 -3.25 C 6.8125 -3.25 6.757812 -3.226562 6.71875 -3.1875 L 2.71875 0.78125 C 2.664062 0.832031 2.632812 0.890625 2.625 0.953125 C 2.613281 1.023438 2.632812 1.085938 2.6875 1.140625 L 3.25 1.71875 C 3.300781 1.769531 3.363281 1.789062 3.4375 1.78125 C 3.519531 1.78125 3.585938 1.753906 3.640625 1.703125 Z M 3.640625 1.703125 "/></g></g></g><g fill="#a775d2" fill-opacity="1"><g transform="translate(30.836563, 101.05969)"><g><path d="M 7.796875 -4.8125 L 9.125 -3.90625 L 6.375 1.859375 L 10.53125 -2.953125 L 11.984375 -1.953125 L 6.140625 4.203125 L 4.4375 3.03125 L 6.65625 -1.6875 L 3.0625 2.09375 L 1.359375 0.921875 L 4.953125 -6.765625 L 6.40625 -5.765625 L 3.4375 -0.140625 Z M 7.796875 -4.8125 "/></g></g></g><g fill="#a775d2" fill-opacity="1"><g transform="translate(39.859172, 106.871371)"><g><path d="M 6.171875 -2.3125 C 6.597656 -1.90625 6.671875 -1.375 6.390625 -0.71875 L 5.78125 0.65625 C 5.332031 1.695312 4.617188 2.003906 3.640625 1.578125 L 0.59375 0.25 L 3.9375 -7.4375 L 6.890625 -6.140625 C 7.867188 -5.710938 8.128906 -4.972656 7.671875 -3.921875 L 7.375 -3.234375 C 7.09375 -2.585938 6.691406 -2.28125 6.171875 -2.3125 Z M 5.984375 -5.1875 L 5.09375 -5.5625 L 4.203125 -3.515625 L 5.09375 -3.140625 C 5.144531 -3.109375 5.203125 -3.109375 5.265625 -3.140625 C 5.335938 -3.171875 5.390625 -3.21875 5.421875 -3.28125 L 6.09375 -4.859375 C 6.125 -4.921875 6.125 -4.984375 6.09375 -5.046875 C 6.070312 -5.109375 6.035156 -5.15625 5.984375 -5.1875 Z M 4.046875 0.125 L 4.796875 -1.59375 C 4.828125 -1.664062 4.832031 -1.734375 4.8125 -1.796875 C 4.789062 -1.859375 4.742188 -1.90625 4.671875 -1.9375 L 3.703125 -2.359375 L 2.75 -0.140625 L 3.71875 0.28125 C 3.789062 0.3125 3.851562 0.304688 3.90625 0.265625 C 3.96875 0.234375 4.015625 0.1875 4.046875 0.125 Z M 4.046875 0.125 "/></g></g></g><g fill="#a775d2" fill-opacity="1"><g transform="translate(46.928693, 109.823445)"><g><path d="M 5.96875 -7.25 C 7.007812 -6.976562 7.390625 -6.289062 7.109375 -5.1875 L 5.40625 1.390625 L 3.640625 0.9375 L 4.34375 -1.78125 L 3.078125 -2.109375 L 2.375 0.609375 L 0.625 0.15625 L 2.328125 -6.421875 C 2.609375 -7.523438 3.265625 -7.941406 4.296875 -7.671875 Z M 3.421875 -3.453125 L 4.6875 -3.125 L 5.390625 -5.859375 C 5.410156 -5.921875 5.40625 -5.976562 5.375 -6.03125 C 5.34375 -6.09375 5.289062 -6.132812 5.21875 -6.15625 L 4.4375 -6.359375 C 4.363281 -6.378906 4.296875 -6.367188 4.234375 -6.328125 C 4.179688 -6.296875 4.144531 -6.25 4.125 -6.1875 Z M 3.421875 -3.453125 "/></g></g></g><g fill="#a775d2" fill-opacity="1"><g transform="translate(54.468018, 111.634065)"><g><path d="M 3.890625 -1.015625 L 4.015625 -2.296875 L 5.71875 -2.125 L 5.609375 -1.046875 C 5.492188 0.0859375 4.90625 0.601562 3.84375 0.5 L 2.21875 0.34375 C 1.15625 0.238281 0.679688 -0.378906 0.796875 -1.515625 L 1.296875 -6.703125 C 1.410156 -7.828125 2 -8.335938 3.0625 -8.234375 L 4.6875 -8.078125 C 5.75 -7.972656 6.222656 -7.359375 6.109375 -6.234375 L 6.03125 -5.4375 L 4.328125 -5.609375 L 4.4375 -6.625 C 4.4375 -6.6875 4.414062 -6.742188 4.375 -6.796875 C 4.332031 -6.859375 4.273438 -6.890625 4.203125 -6.890625 L 3.390625 -6.96875 C 3.316406 -6.976562 3.253906 -6.957031 3.203125 -6.90625 C 3.148438 -6.863281 3.125 -6.8125 3.125 -6.75 L 2.578125 -1.140625 C 2.566406 -1.066406 2.582031 -1 2.625 -0.9375 C 2.664062 -0.882812 2.722656 -0.851562 2.796875 -0.84375 L 3.609375 -0.765625 C 3.679688 -0.765625 3.742188 -0.785156 3.796875 -0.828125 C 3.847656 -0.878906 3.878906 -0.941406 3.890625 -1.015625 Z M 3.890625 -1.015625 "/></g></g></g><g fill="#a775d2" fill-opacity="1"><g transform="translate(61.842381, 112.245804)"><g><path d="M 5.375 -8.6875 L 4.1875 -4.78125 L 6.109375 -0.34375 L 4.28125 -0.234375 L 2.859375 -3.484375 L 2.265625 -3.453125 L 2.453125 -0.140625 L 0.640625 -0.03125 L 0.171875 -8.390625 L 1.984375 -8.5 L 2.1875 -5 L 2.625 -5.015625 L 3.734375 -8.59375 Z M 5.375 -8.6875 "/></g></g></g><g fill="#a775d2" fill-opacity="1"><g transform="translate(69.270612, 111.646993)"><g/></g></g><g fill="#a775d2" fill-opacity="1"><g transform="translate(73.183544, 110.983703)"><g><path d="M 5.234375 -1.5625 L 3.484375 -1.03125 L 1.5 -7.703125 C 1.476562 -7.753906 1.441406 -7.800781 1.390625 -7.84375 C 1.335938 -7.882812 1.273438 -7.894531 1.203125 -7.875 L 0.53125 -7.671875 C 0.46875 -7.648438 0.414062 -7.601562 0.375 -7.53125 C 0.34375 -7.46875 0.335938 -7.410156 0.359375 -7.359375 L 2.34375 -0.6875 L 0.609375 -0.1875 L -1.328125 -6.703125 C -1.648438 -7.785156 -1.300781 -8.476562 -0.28125 -8.78125 L 1.265625 -9.234375 C 2.296875 -9.546875 2.972656 -9.160156 3.296875 -8.078125 Z M 5.234375 -1.5625 "/></g></g></g><g fill="#a775d2" fill-opacity="1"><g transform="translate(80.276791, 108.724191)"><g><path d="M 1.609375 -2.375 L 3.4375 -3.21875 L 4.0625 -1.859375 L 0.578125 -0.265625 L -2.90625 -7.875 L 0.578125 -9.46875 L 1.1875 -8.125 L -0.640625 -7.28125 L 0.1875 -5.484375 L 1.890625 -6.265625 L 2.484375 -4.984375 L 0.78125 -4.203125 Z M 1.609375 -2.375 "/></g></g></g><g fill="#a775d2" fill-opacity="1"><g transform="translate(85.924041, 106.038041)"><g><path d="M -3.46875 -5.890625 L -4.296875 -7.203125 L -0.453125 -9.59375 L 0.375 -8.28125 L -0.765625 -7.5625 L 2.84375 -1.765625 L 1.296875 -0.8125 L -2.3125 -6.609375 Z M -3.46875 -5.890625 "/></g></g></g><g fill="#a775d2" fill-opacity="1"><g transform="translate(91.416332, 102.668422)"><g><path d="M -2.828125 -8.71875 L -1.640625 -9.796875 L 3.3125 -5.75 L -0.390625 -10.921875 L 0.921875 -12.109375 L 5.53125 -4.984375 L 4 -3.59375 L -0.0625 -6.859375 L 2.75 -2.484375 L 1.21875 -1.09375 L -5.40625 -6.40625 L -4.09375 -7.59375 L 0.6875 -3.375 Z M -2.828125 -8.71875 "/></g></g></g><g fill="#a775d2" fill-opacity="1"><g transform="translate(99.196126, 95.268326)"><g><path d="M -2.0625 -8.546875 L 2.09375 -5.40625 C 3 -4.71875 3.128906 -3.945312 2.484375 -3.09375 L 1.453125 -1.71875 C 0.804688 -0.863281 0.03125 -0.78125 -0.875 -1.46875 L -5.03125 -4.609375 C -5.9375 -5.296875 -6.066406 -6.066406 -5.421875 -6.921875 L -4.390625 -8.296875 C -3.742188 -9.148438 -2.96875 -9.234375 -2.0625 -8.546875 Z M 1.171875 -3.828125 L -3.328125 -7.234375 C -3.378906 -7.265625 -3.4375 -7.273438 -3.5 -7.265625 C -3.570312 -7.265625 -3.628906 -7.238281 -3.671875 -7.1875 L -4.171875 -6.53125 C -4.210938 -6.46875 -4.222656 -6.398438 -4.203125 -6.328125 C -4.191406 -6.265625 -4.160156 -6.21875 -4.109375 -6.1875 L 0.390625 -2.78125 C 0.441406 -2.738281 0.5 -2.71875 0.5625 -2.71875 C 0.632812 -2.726562 0.691406 -2.765625 0.734375 -2.828125 L 1.234375 -3.484375 C 1.273438 -3.535156 1.285156 -3.59375 1.265625 -3.65625 C 1.253906 -3.726562 1.222656 -3.785156 1.171875 -3.828125 Z M 1.171875 -3.828125 "/></g></g></g><g fill="#a775d2" fill-opacity="1"><g transform="translate(103.764108, 89.017582)"><g><path d="M -1.859375 -3.765625 L 1.15625 -2.15625 L 0.296875 -0.5625 L -7.09375 -4.515625 L -5.5625 -7.375 C -5.0625 -8.3125 -4.304688 -8.507812 -3.296875 -7.96875 L -2.4375 -7.515625 C -1.832031 -7.191406 -1.5625 -6.765625 -1.625 -6.234375 C -1.289062 -6.535156 -0.878906 -6.554688 -0.390625 -6.296875 L 2.53125 -4.734375 L 1.6875 -3.15625 L -1.109375 -4.65625 C -1.253906 -4.726562 -1.363281 -4.691406 -1.4375 -4.546875 Z M -5.140625 -5.53125 L -2.984375 -4.375 L -2.53125 -5.234375 C -2.5 -5.285156 -2.492188 -5.34375 -2.515625 -5.40625 C -2.546875 -5.476562 -2.585938 -5.53125 -2.640625 -5.5625 L -4.34375 -6.46875 C -4.40625 -6.5 -4.46875 -6.503906 -4.53125 -6.484375 C -4.601562 -6.472656 -4.65625 -6.441406 -4.6875 -6.390625 Z M -5.140625 -5.53125 "/></g></g></g><g fill="#a775d2" fill-opacity="1"><g transform="translate(107.18826, 82.380446)"><g><path d="M -5.96875 -8.296875 L -2.8125 -5.6875 L 2.03125 -5.78125 L 1.421875 -4.046875 L -2.109375 -3.96875 L -2.3125 -3.40625 L 0.8125 -2.3125 L 0.21875 -0.609375 L -7.6875 -3.375 L -7.09375 -5.078125 L -3.765625 -3.921875 L -3.625 -4.34375 L -6.515625 -6.734375 Z M -5.96875 -8.296875 "/></g></g></g></svg>